<svg xmlns="http://www.w3.org/2000/svg" viewBox="0 0 640 140" width="640" height="140" role="img" aria-label="Cressida Capital">
  <title>Cressida Capital</title>
  <g fill="#0F3D2E">
    <path d="M61.111435276209804 84.01002092979006Q61.07185894589966 86.81994038181011 59.54817022895922 89.64964799898522Q58.024481512018774 92.47935561616033 55.15519756453352 94.85393543476881Q52.285913617048266 97.2285152533773 48.18976342994863 98.6532631445424Q44.09361324284899 100.07801103570749 38.86953764191031 100.07801103570749Q30.321050294919768 100.07801103570749 24.107566436227565 96.39741231686433Q17.894082577535357 92.71681359802118 14.510306336018266 86.2065072620029Q11.126530094501174 79.69620092598464 11.126530094501174 71.26644256992452Q11.126530094501174 64.8550770596816 13.125134775163316 59.512272467812515Q15.123739455825458 54.169467875943425 18.744973679203397 50.19204667977421Q22.36620790258134 46.214625483605 27.234096530728735 44.01813915139215Q32.10198515887613 41.8216528191793 37.84055305384664 41.8216528191793Q41.79818608486078 41.8216528191793 44.29149489439969 42.59339126022705Q46.78480370393861 43.36512970127481 48.2095515951037 44.15665630747764Q49.63429948626879 44.94818291368047 50.46540242278176 44.94818291368047Q51.454810680535296 44.94818291368047 51.96930297456713 44.25559713325299Q52.48379526859897 43.56301135282552 53.03786389294095 42.89021373755311Q53.59193251728293 42.21741612228071 54.581340775036466 42.21741612228071Q55.293714720619015 42.21741612228071 55.76863068434071 42.67254392084733Q56.243546648062406 43.12767171941396 56.560157290543536 44.19623263778778L60.71567197310839 57.850066594786576Q60.99270628527938 58.760322191919826 60.53757848671275 59.472696137502375Q60.082450688146125 60.18507008308492 59.172195091012874 60.382951734635625Q58.222363163569476 60.580833386186335 57.47041288767679 60.20485824823999Q56.718462611784105 59.828883110293646 56.283122978372546 58.879051182850255Q54.146001141624915 54.129891545633285 51.55375150631065 51.33976025876831Q48.961501870996386 48.54962897190334 45.95370076742564 47.32276273228895Q42.94589966385489 46.09589649267457 39.46318259656244 46.09589649267457Q35.94088919895985 46.09589649267457 33.01224075600938 47.6987378702353Q30.08359231305892 49.30157924779603 27.946470476311283 52.269804021056636Q25.809348639563645 55.238028794317245 24.641846895414474 59.393543476882094Q23.4743451512653 63.54905815944694 23.4743451512653 68.73355743007548Q23.4743451512653 76.6883998224139 25.94786579564914 82.20929790067862Q28.42138644003298 87.73019597894336 32.69563011352825 90.57969176127355Q36.96987378702353 93.42918754360373 42.47098370013319 93.42918754360373Q47.734635631382 93.42918754360373 51.63290416693093 90.91609056890974Q55.531172702479864 88.40299359421576 57.70787086953764 83.81213927823936Q58.143210502949195 82.9018836811061 58.697279127291175 82.60506120378004Q59.251347751633155 82.30823872645398 59.92414536690556 82.4269677173844Q60.51779032155768 82.50612037800468 60.81461279888374 82.92167184626118Q61.111435276209804 83.33722331451766 61.111435276209804 84.01002092979006Z"/>
    <path d="M80.97875309190081 77.6382317498573Q80.97875309190081 71.89966385488678 82.60138263461661 68.02118348449292Q84.22401217733241 64.14270311409906 86.87562630811189 62.183674763747064Q89.52724043889135 60.224646413395064 92.57461787277225 60.224646413395064Q96.33436925223569 60.224646413395064 98.39233842836305 62.361768250142696Q100.45030760449039 64.49889008689033 100.45030760449039 68.49609944821462Q100.45030760449039 72.05796917612736 98.98598338301517 73.79932770977358Q97.52165916153993 75.5406862434198 95.18665567324157 75.5406862434198Q92.8120758546331 75.5406862434198 91.58520961501871 74.27424367349528Q90.35834337540433 73.00780110357074 90.35834337540433 70.75195027589268V69.3272023847276Q90.31876704509418 68.06075981480306 89.7646984207522 67.44732669499587Q89.21062979641022 66.83389357518868 87.9441872264857 66.83389357518868Q86.55901566563075 66.83389357518868 85.27278493055115 67.98160715418278Q83.98655419547156 69.12932073317688 83.17523942411366 71.46432422147524Q82.36392465275576 73.79932770977358 82.36392465275576 77.44035009830658ZM81.7307033677935 62.95541320479482 82.36392465275576 71.93924018519692V92.24189763429948Q82.36392465275576 93.38961121329358 82.81905245132239 93.9238916724805Q83.27418024988901 94.4581721316674 84.46147015919325 94.65605378321811L87.86503456586541 95.17054607724995Q88.77529016299867 95.32885139849051 89.23041796156531 95.76419103190207Q89.68554576013193 96.19953066531363 89.68554576013193 96.95148094120631Q89.68554576013193 97.74300754740914 89.11168897063487 98.1783471808207Q88.53783218113782 98.61368681423225 87.469271262764 98.61368681423225H68.98712500792796Q67.878987759244 98.61368681423225 67.36449546521216 98.1783471808207Q66.85000317118032 97.74300754740914 66.85000317118032 96.99105727151645Q66.85000317118032 96.39741231686433 67.20619014397158 95.98186084860785Q67.56237711676286 95.56630938035136 68.31432739265554 95.28927506818037L69.85780427475106 94.89351176507896Q70.57017822033362 94.65605378321811 70.90657702796982 94.08219699372106Q71.24297583560602 93.50834020422401 71.24297583560602 92.28147396460962V69.68338935751886Q71.24297583560602 68.65440476945518 70.94615335827996 68.21906513604364Q70.6493308809539 67.78372550263208 69.97653326568148 67.66499651170164L67.878987759244 67.50669119046108Q67.16661381366144 67.34838586922052 66.8500031711803 66.99219889642924Q66.53339252869918 66.63601192363797 66.53339252869918 66.081943299296Q66.53339252869918 65.4091456840236 66.9291558318006 65.01338238092218Q67.32491913490202 64.61761907782076 68.35390372296568 64.22185577471934L75.55679583941144 61.609817974250014Q77.49603602460836 60.857867698357325 78.40629162174162 60.640197881651545Q79.31654721887486 60.42252806494577 79.8310395129067 60.42252806494577Q80.70171877972982 60.42252806494577 81.13705841314138 60.99638485444282Q81.57239804655293 61.57024164393987 81.7307033677935 62.95541320479482Z"/>
    <path d="M141.01604617238536 75.22407560093866Q141.01604617238536 77.32162110737616 139.82875626308112 78.44954652121518Q138.64146635377688 79.57747193505422 136.34603919578868 79.57747193505422H111.65040908226041V76.56967083148348H127.83712817910826Q129.85552102492548 76.56967083148348 129.85552102492548 74.74915963721696Q129.85552102492548 69.5250840362783 127.95585717003868 66.81410541003362Q126.0561933151519 64.10312678378892 122.85051056003044 64.10312678378892Q120.39677808080167 64.10312678378892 118.49711422591488 65.6070273355743Q116.59745037102809 67.11092788735968 115.52888945265427 69.90105917422466Q114.46032853428045 72.69119046108962 114.46032853428045 76.64882349210376Q114.46032853428045 84.28705524196106 118.04198642734825 88.12595928204478Q121.62364432041605 91.9648633221285 127.5996701972474 91.9648633221285Q131.08238726453985 91.9648633221285 133.71421323016426 90.57969176127355Q136.34603919578868 89.1945202004186 137.8103634172639 86.6220587302594Q138.52273736284644 85.83053212405657 138.93828883110294 85.55349781188559Q139.35384029935943 85.2764634997146 139.78917993277096 85.2764634997146Q140.42240121773324 85.2764634997146 140.69943552990424 85.85032028921165Q140.97646984207523 86.4241770787087 140.97646984207523 87.21570368491152Q140.81816452083464 90.5401154309634 138.60189002346672 93.36982304813851Q136.3856155260988 96.19953066531363 132.62586414663537 97.90131286864971Q128.86611276717193 99.60309507198579 123.99822413902454 99.60309507198579Q118.25965624405404 99.60309507198579 113.8271072493182 97.24830341853237Q109.39455825458235 94.89351176507896 106.88146127988837 90.63905625673875Q104.36836430519439 86.38460074839855 104.36836430519439 80.68560918373818Q104.36836430519439 74.70958330690682 106.76273228895795 70.07915266062028Q109.15710027272151 65.44872201433373 113.62922559776749 62.836684213864395Q118.10135092281347 60.224646413395064 124.31483478150568 60.224646413395064Q129.61806304306464 60.224646413395064 133.358026257373 62.14409843343692Q137.09798947168136 64.06355045347878 139.05701782203334 67.44732669499587Q141.01604617238536 70.83110293651296 141.01604617238536 75.22407560093866Z"/>
    <path d="M163.93074142195724 96.00164901376291Q166.661508213357 96.00164901376291 168.1456205999873 94.63626561806304Q169.6297329866176 93.27088222236316 169.6297329866176 91.2129130462358Q169.6297329866176 89.90689414600114 169.05587619712054 88.83833322762732Q168.4820194076235 87.7697723092535 166.83960169975262 86.8990930424304Q165.19718399188176 86.02841377560728 162.0706538973806 85.2764634997146Q155.9758990296188 84.0495972601002 152.63169911841186 82.14993340521342Q149.28749920720492 80.25026955032664 148.00126847212533 77.73717257563266Q146.71503773704572 75.22407560093866 146.71503773704572 72.21627449736792Q146.71503773704572 66.71516458425826 150.61330627259463 63.46990549882666Q154.51157480814356 60.224646413395064 161.87277224582988 60.224646413395064Q164.52438637660936 60.224646413395064 166.20638041479037 60.65998604680662Q167.8883744529714 61.095325680218174 168.9569353713452 61.5504534787848Q170.025496289719 62.005581277351425 170.856599226232 62.005581277351425Q171.7272784930551 62.005581277351425 172.18240629162173 61.5504534787848Q172.63753409018835 61.095325680218174 173.09266188875498 60.65998604680662Q173.5477896873216 60.224646413395064 174.37889262383456 60.224646413395064Q174.9725375784867 60.224646413395064 175.4474535422084 60.600621551341405Q175.92236950593008 60.97659668928775 176.23898014841123 62.045157607661565L178.85101794888055 70.0Q179.32593391260224 71.38517156085494 179.1478404262066 72.25585082767805Q178.969746939811 73.12653009450116 178.05949134267772 73.48271706729244Q177.14923574554447 73.83890404008372 176.49622629542714 73.50250523244752Q175.8432168453098 73.16610642481132 175.20999556034755 72.25585082767806Q173.46863702670132 69.12932073317688 171.43045601572902 67.2890213737553Q169.39227500475675 65.44872201433373 167.15621234223374 64.63740724297583Q164.92014967971076 63.82609247161793 162.50599353079215 63.82609247161793Q159.14200545443012 63.82609247161793 157.44022325109404 65.1914758673178Q155.73844104775796 66.55685926301769 155.73844104775796 68.89186275131604Q155.73844104775796 70.27703431217098 156.4508149933405 71.38517156085494Q157.16318893892304 72.4933088095389 159.12221728927506 73.42335257182722Q161.08124563962704 74.35339633411556 164.72226802816007 75.22407560093866Q169.9067672987886 76.33221284962262 172.91456840235935 78.09335954842392Q175.92236950593008 79.85450624722522 177.24817657131982 82.32802689160906Q178.57398363670956 84.8015475359929 178.57398363670956 88.12595928204478Q178.57398363670956 91.52952368871694 176.81283693790826 94.12177332403121Q175.05169023910696 96.71402295934547 171.9053719794507 98.15855901566563Q168.75905371979448 99.60309507198579 164.6431153675398 99.60309507198579Q162.03107756707044 99.60309507198579 160.46781251981986 99.08860277795395Q158.90454747256928 98.57411048392211 157.89535104966066 98.07940635504534Q156.88615462675205 97.58470222616857 155.93632269930868 97.58470222616857Q155.06564343248556 97.58470222616857 154.4917866429885 98.07940635504534Q153.91792985349144 98.57411048392211 153.4034375594596 99.08860277795395Q152.88894526542776 99.60309507198579 152.13699498953508 99.60309507198579Q151.54335003488296 99.60309507198579 151.1277985666265 99.16775543857423Q150.71224709837 98.73241580516267 150.51436544681928 97.703431217099L148.97088856472377 90.14435212786199Q148.69385425255277 88.56129891545633 148.8719477389484 87.78956047440857Q149.05004122534405 87.01782203336082 149.88114416185704 86.70121139087968Q150.75182342868013 86.34502441808841 151.42462104395253 86.7605758863449Q152.09741865922496 87.17612735460138 152.77021627449736 88.28426460328534Q155.22394875372612 92.4397792858502 158.09323270121138 94.22071414980655Q160.96251664869664 96.00164901376291 163.93074142195724 96.00164901376291Z"/>
    <path d="M202.5572398046553 96.00164901376291Q205.28800659605506 96.00164901376291 206.77211898268536 94.63626561806304Q208.25623136931566 93.27088222236316 208.25623136931566 91.2129130462358Q208.25623136931566 89.90689414600114 207.6823745798186 88.83833322762732Q207.10851779032157 87.7697723092535 205.46610008245068 86.8990930424304Q203.82368237457982 86.02841377560728 200.69715228007865 85.2764634997146Q194.60239741231686 84.0495972601002 191.25819750110992 82.14993340521342Q187.91399758990298 80.25026955032664 186.6277668548234 77.73717257563266Q185.34153611974378 75.22407560093866 185.34153611974378 72.21627449736792Q185.34153611974378 66.71516458425826 189.2398046552927 63.46990549882666Q193.13807319084162 60.224646413395064 200.49927062852794 60.224646413395064Q203.15088475930742 60.224646413395064 204.83287879748843 60.65998604680662Q206.51487283566945 61.095325680218174 207.58343375404326 61.5504534787848Q208.65199467241706 62.005581277351425 209.48309760893005 62.005581277351425Q210.35377687575317 62.005581277351425 210.8089046743198 61.5504534787848Q211.2640324728864 61.095325680218174 211.71916027145303 60.65998604680662Q212.17428807001966 60.224646413395064 213.00539100653262 60.224646413395064Q213.59903596118477 60.224646413395064 214.07395192490645 60.600621551341405Q214.54886788862814 60.97659668928775 214.8654785311093 62.045157607661565L217.4775163315786 70.0Q217.9524322953003 71.38517156085494 217.77433880890467 72.25585082767805Q217.59624532250905 73.12653009450116 216.68598972537578 73.48271706729244Q215.77573412824253 73.83890404008372 215.1227246781252 73.50250523244752Q214.46971522800786 73.16610642481132 213.8364939430456 72.25585082767806Q212.09513540939938 69.12932073317688 210.05695439842708 67.2890213737553Q208.01877338745481 65.44872201433373 205.7827107249318 64.63740724297583Q203.54664806240882 63.82609247161793 201.1324919134902 63.82609247161793Q197.76850383712818 63.82609247161793 196.0667216337921 65.1914758673178Q194.36493943045602 66.55685926301769 194.36493943045602 68.89186275131604Q194.36493943045602 70.27703431217098 195.07731337603855 71.38517156085494Q195.7896873216211 72.4933088095389 197.74871567197312 73.42335257182722Q199.7077440223251 74.35339633411556 203.34876641085813 75.22407560093866Q208.53326568148665 76.33221284962262 211.5410667850574 78.09335954842392Q214.54886788862814 79.85450624722522 215.87467495401788 82.32802689160906Q217.20048201940762 84.8015475359929 217.20048201940762 88.12595928204478Q217.20048201940762 91.52952368871694 215.43933532060632 94.12177332403121Q213.67818862180502 96.71402295934547 210.53187036214877 98.15855901566563Q207.38555210249254 99.60309507198579 203.26961375023785 99.60309507198579Q200.6575759497685 99.60309507198579 199.09431090251792 99.08860277795395Q197.53104585526734 98.57411048392211 196.52184943235872 98.07940635504534Q195.5126530094501 97.58470222616857 194.56282108200674 97.58470222616857Q193.69214181518362 97.58470222616857 193.11828502568656 98.07940635504534Q192.5444282361895 98.57411048392211 192.02993594215766 99.08860277795395Q191.51544364812582 99.60309507198579 190.76349337223314 99.60309507198579Q190.16984841758102 99.60309507198579 189.75429694932456 99.16775543857423Q189.33874548106806 98.73241580516267 189.14086382951734 97.703431217099L187.59738694742182 90.14435212786199Q187.32035263525083 88.56129891545633 187.49844612164645 87.78956047440857Q187.6765396080421 87.01782203336082 188.5076425445551 86.70121139087968Q189.37832181137819 86.34502441808841 190.0511194266506 86.7605758863449Q190.72391704192302 87.17612735460138 191.39671465719542 88.28426460328534Q193.85044713642418 92.4397792858502 196.71973108390944 94.22071414980655Q199.5890150313947 96.00164901376291 202.5572398046553 96.00164901376291Z"/>
    <path d="M239.7194139658781 62.91583687448468V92.28147396460962Q239.7194139658781 93.50834020422401 240.05581277351428 94.08219699372106Q240.3922115811505 94.65605378321811 241.10458552673305 94.89351176507896L242.6084860785184 95.28927506818037Q243.3604363544111 95.52673305004122 243.71662332720237 95.9422845182977Q244.07281029999365 96.35783598655419 244.07281029999365 96.99105727151645Q244.07281029999365 97.74300754740914 243.5583180059618 98.1783471808207Q243.04382571192997 98.61368681423225 241.89611213293585 98.61368681423225H226.30303799074014Q225.19490074205618 98.61368681423225 224.68040844802434 98.1783471808207Q224.1659161539925 97.74300754740914 224.1659161539925 96.99105727151645Q224.1659161539925 96.39741231686433 224.52210312678378 95.98186084860785Q224.87829009957505 95.56630938035136 225.63024037546774 95.28927506818037L227.17371725756325 94.89351176507896Q227.8860912031458 94.61647745290797 228.222490010782 94.06240882856599Q228.5588888184182 93.50834020422401 228.5588888184182 92.28147396460962V69.60423669689858Q228.5588888184182 68.5752521088349 228.26206634109215 68.13991247542336Q227.9652438637661 67.7045728420118 227.2924462484937 67.58584385108136L225.19490074205618 67.4275385298408Q224.48252679647365 67.26923320860024 224.1659161539925 66.91304623580896Q223.84930551151137 66.55685926301769 223.84930551151137 66.00279063867572Q223.84930551151137 65.3299930234033 224.22528064945772 64.93422972030189Q224.60125578740406 64.53846641720048 225.6698167057779 64.14270311409906L233.03101414346418 61.451512653009445Q234.5744910255597 60.897444028667465 235.50453478784803 60.65998604680662Q236.43457855013637 60.42252806494577 237.0677998350986 60.42252806494577Q238.4133950656434 60.42252806494577 239.06640451576075 61.115113845373244Q239.7194139658781 61.80769962580072 239.7194139658781 62.91583687448468ZM233.26847212532505 54.36734952749413Q230.10236570051373 54.36734952749413 228.18291368047187 52.72493181962326Q226.26346166043 51.08251411175239 226.26346166043 48.43089998097292Q226.26346166043 45.77928585019344 228.18291368047187 44.17644447263271Q230.10236570051373 42.57360309507198 233.26847212532505 42.57360309507198Q236.4741548804465 42.57360309507198 238.39360690048835 44.17644447263271Q240.3130589205302 45.77928585019344 240.3130589205302 48.43089998097292Q240.3130589205302 51.08251411175239 238.39360690048835 52.72493181962326Q236.4741548804465 54.36734952749413 233.26847212532505 54.36734952749413Z"/>
    <path d="M277.7918437242341 92.00443965243863 277.4356567514429 91.80655800088793V48.94539227500476Q277.4356567514429 47.95598401725122 277.1388342741168 47.52064438383967Q276.84201179679076 47.08530475042811 276.1296378512082 46.96657575949768L274.07166867508084 46.80827043825712Q273.3592947294983 46.61038878670641 273.04268408701716 46.25420181391513Q272.72607344453604 45.89801484112386 272.72607344453604 45.34394621678188Q272.72607344453604 44.71072493181962 273.1020485824824 44.31496162871821Q273.4780237204287 43.91919832561679 274.5465846388025 43.52343502251538L281.90778207648884 40.83224456142576Q283.4116826282742 40.27817593708378 284.3219382254075 40.02092979006786Q285.23219382254075 39.76368364305194 286.06329675905374 39.76368364305194Q287.2901629986681 39.76368364305194 287.92338428363036 40.45626942347941Q288.5566055685926 41.14885520390689 288.5566055685926 42.29656878290099V92.28147396460962Q288.5566055685926 93.50834020422401 288.91279254138385 94.08219699372106Q289.26897951417516 94.65605378321811 289.9813534597577 94.89351176507896L291.4852540115431 95.28927506818037Q292.23720428743576 95.52673305004122 292.593391260227 95.9422845182977Q292.9495782330183 96.35783598655419 292.9495782330183 96.99105727151645Q292.9495782330183 97.74300754740914 292.4152977738314 98.1783471808207Q291.8810173146445 98.61368681423225 290.7728800659605 98.61368681423225H282.5805796917613Q280.5226105156339 98.61368681423225 279.157227119934 97.28787974884251Q277.7918437242341 95.96207268345277 277.7918437242341 93.82495084670514ZM248.94069892814105 80.92306716559904Q248.94069892814105 74.5908543159764 251.45379590283503 69.94063550453478Q253.966892877529 65.29041669309316 258.28071288133447 62.757531553244114Q262.59453288513987 60.224646413395064 267.93733747700895 60.224646413395064Q272.6469207839158 60.224646413395064 276.28794317244876 62.42113274560791Q279.9289655609818 64.61761907782076 282.3035453795903 68.8522864210059L279.57277858819054 71.10813724868396Q277.63353840299357 67.86287816325236 275.19959408891987 66.2798249508467Q272.76564977484617 64.69677173844104 269.9557303228261 64.69677173844104Q267.2645398617365 64.69677173844104 265.12741802498886 66.29961311600178Q262.99029618824125 67.9024544935625 261.7634299486269 71.2070780744593Q260.5365637090125 74.51170165535612 260.5365637090125 79.69620092598464Q260.5365637090125 84.5245132238219 261.72385361831675 87.69061964863322Q262.911143527621 90.85672607344453 264.98890086890344 92.41999112069513Q267.06665821018584 93.98325616794571 269.7182723409653 93.98325616794571Q272.6073444536056 93.98325616794571 275.1006532631445 92.26168579945455Q277.59396207268344 90.5401154309634 279.6915075791209 86.97824570305067L281.4724424430773 89.23409653072873Q278.3459123485761 94.10198515887613 274.2497621614765 96.85254011543097Q270.1536119743769 99.60309507198579 265.20657068560917 99.60309507198579Q260.5365637090125 99.60309507198579 256.85596499016935 97.20872708822223Q253.17536627132617 94.81435910445867 251.05803259973362 90.59947992642861Q248.94069892814105 86.38460074839855 248.94069892814105 80.92306716559904Z"/>
    <path d="M322.4735206443838 93.5874928648443V92.75638992833132L321.72157036849114 92.59808460709075V68.97101541193632Q321.72157036849114 66.20067229022642 320.3166106424811 64.67698357328598Q318.9116509164711 63.153294856345525 316.3391894463119 63.153294856345525Q314.0041859580135 63.153294856345525 312.73774338808903 64.14270311409906Q311.4713008181645 65.1321113718526 311.4713008181645 66.59643559332784V70.07915266062028Q311.4713008181645 72.45373247922876 309.8882476057588 73.73996321430836Q308.3051943933532 75.02619394938796 305.41612228071284 75.02619394938796Q302.96238980148405 75.02619394938796 301.69594723155956 73.85869220523878Q300.429504661635 72.69119046108962 300.429504661635 70.6727976152724Q300.429504661635 68.17948880573348 302.48747383776237 65.78512082196993Q304.5454430138897 63.390752838206375 308.542652375214 61.827487790955786Q312.5398617365383 60.264222743705204 318.39715862243924 60.264222743705204Q325.67920339950524 60.264222743705204 329.22128496226287 63.21265935181074Q332.76336652502056 66.16109595991628 332.76336652502056 71.18728990930424V91.76698167057779Q332.76336652502056 92.87511891926175 333.21849432358715 93.42918754360373Q333.6736221221538 93.98325616794571 334.5047250586668 93.98325616794571Q335.3754043254899 93.98325616794571 335.81074395890147 93.56770469968922Q336.246083592313 93.15215323143273 336.56269423479415 92.71681359802118Q336.76057588634484 92.4397792858502 336.9980338682057 92.26168579945455Q337.2354918500666 92.08359231305892 337.59167882285783 92.08359231305892Q338.0665947865795 92.08359231305892 338.30405276844033 92.4397792858502Q338.5415107503012 92.79596625864146 338.5415107503012 93.38961121329358Q338.5415107503012 94.7352064438384 337.6114669880129 96.15995433500348Q336.6814232257246 97.58470222616857 334.841123866303 98.59389864907718Q333.00082450688143 99.60309507198579 330.2304813851715 99.60309507198579Q326.7081879875689 99.60309507198579 324.59085431597634 98.00025369442506Q322.4735206443838 96.39741231686433 322.4735206443838 93.5874928648443ZM298.7672987886091 90.3422337794127Q298.7672987886091 85.39519249064502 303.18005961818983 82.34781505676412Q307.59282044777063 79.30043762288324 315.5080865097989 79.30043762288324Q318.0805479799581 79.30043762288324 320.1583053212405 79.7357772562948Q322.23606266252295 80.17111688970634 323.7399632143083 80.92306716559904L322.8692839474852 83.45595230544808Q321.5236887169404 82.82273102048582 320.1187289909304 82.46654404769455Q318.71376926492036 82.11035707490328 317.09113972220456 82.11035707490328Q313.80630430646283 82.11035707490328 311.96600494704126 83.7923511130843Q310.1257055876197 85.4743451512653 310.1257055876197 88.4425699245259Q310.1257055876197 91.41079469778651 311.68897063487026 92.99384791019217Q313.25223568212084 94.57690112259783 315.74554449165976 94.57690112259783Q317.88266632840737 94.57690112259783 319.8416946787594 93.60728102999937Q321.8007230291114 92.6376609374009 323.1463182596562 90.89630240375467L324.0169975264793 93.15215323143273Q321.8402993594215 96.23910699562377 318.17948880573346 97.92110103380477Q314.5186782520454 99.60309507198579 310.4027398997907 99.60309507198579Q305.21824062916215 99.60309507198579 301.9927697088856 97.0306336018266Q298.7672987886091 94.4581721316674 298.7672987886091 90.3422337794127Z"/>
    <path d="M410.05593962072686 84.01002092979006Q410.01636329041673 86.81994038181011 408.4926745734763 89.64964799898522Q406.9689858565358 92.47935561616033 404.09970190905057 94.85393543476881Q401.2304179615653 97.2285152533773 397.1342677744657 98.6532631445424Q393.03811758736606 100.07801103570749 387.81404198642736 100.07801103570749Q379.2655546394368 100.07801103570749 373.0520707807446 96.39741231686433Q366.8385869220524 92.71681359802118 363.4548106805353 86.2065072620029Q360.0710344390182 79.69620092598464 360.0710344390182 71.26644256992452Q360.0710344390182 64.8550770596816 362.06963911968035 59.512272467812515Q364.0682438003425 54.169467875943425 367.6894780237204 50.19204667977421Q371.31071224709837 46.214625483605 376.17860087524576 44.01813915139215Q381.04648950339316 41.8216528191793 386.7850573983637 41.8216528191793Q390.74269042937783 41.8216528191793 393.23599923891675 42.59339126022705Q395.72930804845566 43.36512970127481 397.1540559396208 44.15665630747764Q398.57880383078583 44.94818291368047 399.4099067672988 44.94818291368047Q400.3993150250523 44.94818291368047 400.9138073190842 44.25559713325299Q401.428299613116 43.56301135282552 401.982368237458 42.89021373755311Q402.5364368618 42.21741612228071 403.52584511955354 42.21741612228071Q404.23821906513604 42.21741612228071 404.7131350288578 42.67254392084733Q405.18805099257946 43.12767171941396 405.5046616350606 44.19623263778778L409.6601763176254 57.850066594786576Q409.9372106297964 58.760322191919826 409.48208283122983 59.472696137502375Q409.0269550326632 60.18507008308492 408.11669943552994 60.382951734635625Q407.1668675080865 60.580833386186335 406.41491723219383 60.20485824823999Q405.66296695630115 59.828883110293646 405.2276273228896 58.879051182850255Q403.090505486142 54.129891545633285 400.4982558508277 51.33976025876831Q397.90600621551346 48.54962897190334 394.89820511194273 47.32276273228895Q391.89040400837195 46.09589649267457 388.4076869410795 46.09589649267457Q384.8853935434769 46.09589649267457 381.9567451005264 47.6987378702353Q379.028096657576 49.30157924779603 376.8909748208283 52.269804021056636Q374.7538529840807 55.238028794317245 373.58635123993156 59.393543476882094Q372.41884949578235 63.54905815944694 372.41884949578235 68.73355743007548Q372.41884949578235 76.6883998224139 374.8923701401662 82.20929790067862Q377.36589078455 87.73019597894336 381.6401344580453 90.57969176127355Q385.91437813154056 93.42918754360373 391.41548804465026 93.42918754360373Q396.67913997589903 93.42918754360373 400.57740851144797 90.91609056890974Q404.4756770469969 88.40299359421576 406.6523752140547 83.81213927823936Q407.08771484746626 82.9018836811061 407.64178347180825 82.60506120378004Q408.1958520961502 82.30823872645398 408.8686497114226 82.4269677173844Q409.46229466607474 82.50612037800468 409.7591171434008 82.92167184626118Q410.05593962072686 83.33722331451766 410.05593962072686 84.01002092979006Z"/>
    <path d="M439.77776368364306 93.5874928648443V92.75638992833132L439.0258134077504 92.59808460709075V68.97101541193632Q439.0258134077504 66.20067229022642 437.6208536817403 64.67698357328598Q436.2158939557303 63.153294856345525 433.6434324855711 63.153294856345525Q431.30842899727276 63.153294856345525 430.0419864273482 64.14270311409906Q428.7755438574237 65.1321113718526 428.7755438574237 66.59643559332784V70.07915266062028Q428.7755438574237 72.45373247922876 427.1924906450181 73.73996321430836Q425.6094374326124 75.02619394938796 422.7203653199721 75.02619394938796Q420.2666328407433 75.02619394938796 419.00019027081873 73.85869220523878Q417.73374770089424 72.69119046108962 417.73374770089424 70.6727976152724Q417.73374770089424 68.17948880573348 419.7917168770216 65.78512082196993Q421.84968605314896 63.390752838206375 425.84689541447324 61.827487790955786Q429.8441047757975 60.264222743705204 435.70140166169847 60.264222743705204Q442.9834464387645 60.264222743705204 446.52552800152216 63.21265935181074Q450.0676095642798 66.16109595991628 450.0676095642798 71.18728990930424V91.76698167057779Q450.0676095642798 92.87511891926175 450.52273736284644 93.42918754360373Q450.9778651614131 93.98325616794571 451.808968097926 93.98325616794571Q452.67964736474914 93.98325616794571 453.1149869981607 93.56770469968922Q453.55032663157226 93.15215323143273 453.8669372740534 92.71681359802118Q454.0648189256041 92.4397792858502 454.30227690746494 92.26168579945455Q454.5397348893258 92.08359231305892 454.89592186211706 92.08359231305892Q455.37083782583875 92.08359231305892 455.6082958076996 92.4397792858502Q455.8457537895605 92.79596625864146 455.8457537895605 93.38961121329358Q455.8457537895605 94.7352064438384 454.91571002727216 96.15995433500348Q453.9856662649838 97.58470222616857 452.14536690556224 98.59389864907718Q450.30506754614066 99.60309507198579 447.53472442443075 99.60309507198579Q444.01243102682815 99.60309507198579 441.89509735523563 98.00025369442506Q439.77776368364306 96.39741231686433 439.77776368364306 93.5874928648443ZM416.0715418278683 90.3422337794127Q416.0715418278683 85.39519249064502 420.4843026574491 82.34781505676412Q424.89706348702987 79.30043762288324 432.8123295490581 79.30043762288324Q435.38479101921735 79.30043762288324 437.4625483604998 79.7357772562948Q439.5403057017822 80.17111688970634 441.04420625356755 80.92306716559904L440.17352698674443 83.45595230544808Q438.82793175619963 82.82273102048582 437.4229720301896 82.46654404769455Q436.0180123041796 82.11035707490328 434.3953827614638 82.11035707490328Q431.11054734572207 82.11035707490328 429.2702479863005 83.7923511130843Q427.4299486268789 85.4743451512653 427.4299486268789 88.4425699245259Q427.4299486268789 91.41079469778651 428.9932136741295 92.99384791019217Q430.5564787213801 94.57690112259783 433.049787530919 94.57690112259783Q435.18690936766666 94.57690112259783 437.1459377180187 93.60728102999937Q439.10496606837063 92.6376609374009 440.45056129891543 90.89630240375467L441.32124056573855 93.15215323143273Q439.14454239868076 96.23910699562377 435.4837318449927 97.92110103380477Q431.8229212913046 99.60309507198579 427.7069829390499 99.60309507198579Q422.5224836684214 99.60309507198579 419.2970127481449 97.0306336018266Q416.0715418278683 94.4581721316674 416.0715418278683 90.3422337794127Z"/>
    <path d="M474.76323967780803 62.91583687448468V67.34838586922052L475.2381556415297 68.29821779666392V110.72404388913553Q475.2381556415297 111.95091012874991 475.57455444916593 112.52476691824697Q475.91095325680215 113.09862370774403 476.6233272023847 113.29650535929473L478.7208727088222 113.73184499270629Q479.512399315025 113.96930297456713 479.86858628781624 114.38485444282361Q480.22477326060755 114.8004059110801 480.22477326060755 115.43362719604237Q480.22477326060755 116.18557747193505 479.69049280142065 116.6209171053466Q479.15621234223374 117.05625673875817 478.00849876323963 117.05625673875817H461.82177966639176Q460.71364241770783 117.05625673875817 460.19915012367596 116.6209171053466Q459.68465782964415 116.18557747193505 459.68465782964415 115.43362719604237Q459.68465782964415 114.83998224139025 460.04084480243546 114.42443077313376Q460.3970317752267 114.00887930487727 461.1489820511194 113.73184499270629L462.6924589332149 113.33608168960487Q463.40483287879744 113.09862370774403 463.74123168643365 112.52476691824697Q464.07763049406987 111.95091012874991 464.07763049406987 110.72404388913553V69.56466036658844Q464.07763049406987 68.5752521088349 463.7808080167438 68.13991247542336Q463.48398553941774 67.7045728420118 462.8111879241453 67.58584385108136L460.71364241770783 67.4275385298408Q460.0012684721253 67.26923320860024 459.68465782964415 66.91304623580896Q459.36804718716303 66.55685926301769 459.36804718716303 66.00279063867572Q459.36804718716303 65.3299930234033 459.74402232510937 64.97380605061204Q460.1199974630557 64.61761907782076 461.1885583814295 64.1822794444092L468.1144161857043 61.451512653009445Q469.5391640768694 60.857867698357325 470.46920783915766 60.640197881651545Q471.399251601446 60.42252806494577 472.11162554702855 60.42252806494577Q473.45722077757335 60.42252806494577 474.1102302276907 61.115113845373244Q474.76323967780803 61.80769962580072 474.76323967780803 62.91583687448468ZM472.94272848354154 72.84949578233018 471.2013699498953 70.59364495465212Q474.3279000443965 65.68617999619458 478.40426206634106 62.95541320479482Q482.4806240882856 60.224646413395064 487.4672417073634 60.224646413395064Q492.13724868396014 60.224646413395064 495.8178474028033 62.59922623200355Q499.49844612164645 64.97380605061204 501.61577979323897 69.1886852286421Q503.73311346483155 73.40356440667216 503.73311346483155 78.90467431978182Q503.73311346483155 85.19731083909431 501.2200164901376 89.84752965053593Q498.7069195154436 94.49774846197755 494.3930995116382 97.05042176698167Q490.0792795078328 99.60309507198579 484.7364749159637 99.60309507198579Q480.02689160905686 99.60309507198579 476.38586922052383 97.38682057461787Q472.7448468319908 95.17054607724995 470.3702670133823 90.97545506437496L473.1010338047821 88.68002790638675Q475.040273989979 91.92528699181835 477.4742183040527 93.50834020422401Q479.9081626181264 95.09139341662967 482.71808207014647 95.09139341662967Q485.44884886154625 95.09139341662967 487.5661825331388 93.50834020422401Q489.68351620473135 91.92528699181835 490.9103824443457 88.58108708061141Q492.13724868396014 85.23688716940445 492.13724868396014 80.09196422908606Q492.13724868396014 75.2636519312488 490.9499587746559 72.09754550643748Q489.76266886535166 68.93143908162618 487.6849115240692 67.36817403437558Q485.6071541827868 65.804908987125 482.95554005200734 65.804908987125Q480.1060442696771 65.804908987125 477.5929472949831 67.52647935561616Q475.07985032028915 69.24804972410732 472.94272848354154 72.84949578233018Z"/>
    <path d="M525.1834844929283 62.91583687448468V92.28147396460962Q525.1834844929283 93.50834020422401 525.5198833005645 94.08219699372106Q525.8562821082007 94.65605378321811 526.5686560537832 94.89351176507896L528.0725566055686 95.28927506818037Q528.8245068814613 95.52673305004122 529.1806938542526 95.9422845182977Q529.5368808270439 96.35783598655419 529.5368808270439 96.99105727151645Q529.5368808270439 97.74300754740914 529.022388533012 98.1783471808207Q528.5078962389802 98.61368681423225 527.3601826599861 98.61368681423225H511.76710851779035Q510.65897126910636 98.61368681423225 510.14447897507455 98.1783471808207Q509.6299866810427 97.74300754740914 509.6299866810427 96.99105727151645Q509.6299866810427 96.39741231686433 509.98617365383393 95.98186084860785Q510.34236062662524 95.56630938035136 511.0943109025179 95.28927506818037L512.6377877846135 94.89351176507896Q513.350161730196 94.61647745290797 513.6865605378322 94.06240882856599Q514.0229593454684 93.50834020422401 514.0229593454684 92.28147396460962V69.60423669689858Q514.0229593454684 68.5752521088349 513.7261368681422 68.13991247542336Q513.4293143908162 67.7045728420118 512.7565167755439 67.58584385108136L510.65897126910636 67.4275385298408Q509.9465973235238 67.26923320860024 509.6299866810427 66.91304623580896Q509.31337603856156 66.55685926301769 509.31337603856156 66.00279063867572Q509.31337603856156 65.3299930234033 509.6893511765079 64.93422972030189Q510.06532631445424 64.53846641720048 511.13388723282804 64.14270311409906L518.4950846705144 61.451512653009445Q520.0385615526098 60.897444028667465 520.9686053148982 60.65998604680662Q521.8986490771865 60.42252806494577 522.5318703621488 60.42252806494577Q523.8774655926936 60.42252806494577 524.530475042811 61.115113845373244Q525.1834844929283 61.80769962580072 525.1834844929283 62.91583687448468ZM518.7325426523752 54.36734952749413Q515.5664362275639 54.36734952749413 513.6469842075221 52.72493181962326Q511.72753218748016 51.08251411175239 511.72753218748016 48.43089998097292Q511.72753218748016 45.77928585019344 513.6469842075221 44.17644447263271Q515.5664362275639 42.57360309507198 518.7325426523752 42.57360309507198Q521.9382254074967 42.57360309507198 523.8576774275385 44.17644447263271Q525.7771294475804 45.77928585019344 525.7771294475804 48.43089998097292Q525.7771294475804 51.08251411175239 523.8576774275385 52.72493181962326Q521.9382254074967 54.36734952749413 518.7325426523752 54.36734952749413Z"/>
    <path d="M536.581467622249 65.01338238092217 534.7609564279825 64.4593137565802Q533.8111245005391 64.14270311409906 533.4153611974377 63.72715164584258Q533.0195978943362 63.311600177586094 533.0195978943362 62.757531553244114Q533.0195978943362 61.966004947041284 533.5538783535231 61.5504534787848Q534.08815881271 61.134902010528315 534.9984144098433 61.134902010528315H537.4125705587619Q538.3624024862053 61.134902010528315 538.9956237711676 60.778715037737044Q539.6288450561299 60.42252806494577 540.3016426714022 59.512272467812515L544.6154626752077 53.45709393036088Q545.4465656117206 52.4281093422972 546.1985158876133 51.953193378575506Q546.950466163506 51.47827741485381 547.7024164393987 51.47827741485381Q548.5335193759116 51.47827741485381 549.0084353396334 51.992769708885646Q549.4833513033551 52.507262002917486 549.4833513033551 53.49667026067102V87.33443267584194Q549.4833513033551 90.10477579755184 550.571700386884 91.56910001902708Q551.6600494704128 93.03342424050231 553.5992896556098 93.03342424050231Q555.063613877085 93.03342424050231 555.8749286484428 92.45956745100526Q556.6862434198008 91.88571066150821 557.1611593835225 91.13376038561552Q557.6360753472442 90.38181010972284 558.0912031458108 89.80795332022578Q558.5463309443775 89.23409653072873 559.25870488996 89.1945202004186Q559.8523498446121 89.1945202004186 560.1887486522483 89.59028350352Q560.5251474598845 89.98604680662142 560.5251474598845 90.89630240375467Q560.4855711295744 93.15215323143273 559.0410350732543 95.09139341662967Q557.5964990169341 97.0306336018266 555.0240375467749 98.23771167628591Q552.4515760766157 99.44478975074523 549.166740660874 99.44478975074523Q544.1009703811758 99.44478975074523 541.2316864336906 96.8921164457411Q538.3624024862053 94.33944314073698 538.3624024862053 89.1945202004186V67.34838586922052Q538.3624024862053 66.31940128115684 537.9468510179488 65.82469715228007Q537.5312995496923 65.3299930234033 536.581467622249 65.01338238092217ZM545.0903786389293 65.05295871123232V61.134902010528315H558.1901439715862Q559.1003995687195 61.134902010528315 559.6346800279064 61.51087714847466Q560.1689604870933 61.886852286421004 560.1689604870933 62.599226232003545Q560.1689604870933 63.628210820067224 559.1399758990297 64.34058476564977Q558.1109913109659 65.05295871123232 555.8155641529777 65.05295871123232Z"/>
    <path d="M589.4950212469081 93.5874928648443V92.75638992833132L588.7430709710154 92.59808460709075V68.97101541193632Q588.7430709710154 66.20067229022642 587.3381112450054 64.67698357328598Q585.9331515189954 63.153294856345525 583.3606900488362 63.153294856345525Q581.0256865605379 63.153294856345525 579.7592439906134 64.14270311409906Q578.4928014206888 65.1321113718526 578.4928014206888 66.59643559332784V70.07915266062028Q578.4928014206888 72.45373247922876 576.9097482082832 73.73996321430836Q575.3266949958775 75.02619394938796 572.4376228832372 75.02619394938796Q569.9838904040084 75.02619394938796 568.7174478340839 73.85869220523878Q567.4510052641593 72.69119046108962 567.4510052641593 70.6727976152724Q567.4510052641593 68.17948880573348 569.5089744402867 65.78512082196993Q571.566943616414 63.390752838206375 575.5641529777383 61.827487790955786Q579.5613623390626 60.264222743705204 585.4186592249636 60.264222743705204Q592.7007040020296 60.264222743705204 596.2427855647873 63.21265935181074Q599.7848671275449 66.16109595991628 599.7848671275449 71.18728990930424V91.76698167057779Q599.7848671275449 92.87511891926175 600.2399949261115 93.42918754360373Q600.6951227246782 93.98325616794571 601.5262256611911 93.98325616794571Q602.3969049280142 93.98325616794571 602.8322445614258 93.56770469968922Q603.2675841948374 93.15215323143273 603.5841948373185 92.71681359802118Q603.7820764888692 92.4397792858502 604.01953447073 92.26168579945455Q604.2569924525909 92.08359231305892 604.6131794253822 92.08359231305892Q605.0880953891038 92.08359231305892 605.3255533709647 92.4397792858502Q605.5630113528256 92.79596625864146 605.5630113528256 93.38961121329358Q605.5630113528256 94.7352064438384 604.6329675905372 96.15995433500348Q603.7029238282489 97.58470222616857 601.8626244688273 98.59389864907718Q600.0223251094058 99.60309507198579 597.2519819876959 99.60309507198579Q593.7296885900932 99.60309507198579 591.6123549185006 98.00025369442506Q589.4950212469081 96.39741231686433 589.4950212469081 93.5874928648443ZM565.7887993911335 90.3422337794127Q565.7887993911335 85.39519249064502 570.2015602207142 82.34781505676412Q574.614321050295 79.30043762288324 582.5295871123233 79.30043762288324Q585.1020485824824 79.30043762288324 587.1798059237649 79.7357772562948Q589.2575632650473 80.17111688970634 590.7614638168327 80.92306716559904L589.8907845500096 83.45595230544808Q588.5451893194647 82.82273102048582 587.1402295934547 82.46654404769455Q585.7352698674447 82.11035707490328 584.1126403247289 82.11035707490328Q580.8278049089871 82.11035707490328 578.9875055495656 83.7923511130843Q577.1472061901441 85.4743451512653 577.1472061901441 88.4425699245259Q577.1472061901441 91.41079469778651 578.7104712373946 92.99384791019217Q580.2737362846452 94.57690112259783 582.7670450941841 94.57690112259783Q584.9041669309318 94.57690112259783 586.8631952812838 93.60728102999937Q588.8222236316358 92.6376609374009 590.1678188621805 90.89630240375467L591.0384981290036 93.15215323143273Q588.8617999619458 96.23910699562377 585.2009894082578 97.92110103380477Q581.5401788545697 99.60309507198579 577.424240502315 99.60309507198579Q572.2397412316865 99.60309507198579 569.01427031141 97.0306336018266Q565.7887993911335 94.4581721316674 565.7887993911335 90.3422337794127Z"/>
    <path d="M625.4303291685164 42.29656878290099V92.28147396460962Q625.4303291685164 93.50834020422401 625.7667279761527 94.08219699372106Q626.1031267837889 94.65605378321811 626.8155007293714 94.89351176507896L628.3194012811568 95.28927506818037Q629.0713515570495 95.52673305004122 629.4275385298408 95.9422845182977Q629.783725502632 96.35783598655419 629.783725502632 96.99105727151645Q629.783725502632 97.74300754740914 629.2692332086002 98.1783471808207Q628.7547409145684 98.61368681423225 627.6070273355742 98.61368681423225H612.0139531933785Q610.9058159446946 98.61368681423225 610.3913236506628 98.1783471808207Q609.8768313566309 97.74300754740914 609.8768313566309 96.99105727151645Q609.8768313566309 96.39741231686433 610.2330183294222 95.98186084860785Q610.5892053022135 95.56630938035136 611.3411555781062 95.28927506818037L612.8846324602016 94.89351176507896Q613.5970064057842 94.61647745290797 613.9334052134204 94.06240882856599Q614.2698040210565 93.50834020422401 614.2698040210565 92.28147396460962V48.94539227500476Q614.2698040210565 47.95598401725122 613.9729815437305 47.52064438383967Q613.6761590664045 47.08530475042811 613.003361451132 46.96657575949768L610.9058159446946 46.80827043825712Q610.193441999112 46.61038878670641 609.8768313566309 46.25420181391513Q609.5602207141498 45.89801484112386 609.5602207141498 45.34394621678188Q609.5602207141498 44.71072493181962 609.9559840172512 44.31496162871821Q610.3517473203526 43.91919832561679 611.3807319084162 43.52343502251538L618.7419293461026 40.83224456142576Q620.3249825585082 40.23859960677364 621.2352381556415 40.00114162491279Q622.1454937527748 39.76368364305194 622.8182913680471 39.76368364305194Q624.1243102682818 39.76368364305194 624.7773197183991 40.45626942347941Q625.4303291685164 41.14885520390689 625.4303291685164 42.29656878290099Z"/>
  </g>
</svg>
